<?xml version="1.0" encoding="utf-8"?>
<!-- Generator: Adobe Illustrator 21.0.2, SVG Export Plug-In . SVG Version: 6.00 Build 0)  -->
<svg version="1.1"
	 id="svg5194" inkscape:version="0.92.1 r" sodipodi:docname="horizontal color.svg" xmlns:cc="http://creativecommons.org/ns#" xmlns:dc="http://purl.org/dc/elements/1.1/" xmlns:inkscape="http://www.inkscape.org/namespaces/inkscape" xmlns:rdf="http://www.w3.org/1999/02/22-rdf-syntax-ns#" xmlns:sodipodi="http://sodipodi.sourceforge.net/DTD/sodipodi-0.dtd" xmlns:svg="http://www.w3.org/2000/svg"
	 xmlns="http://www.w3.org/2000/svg" xmlns:xlink="http://www.w3.org/1999/xlink" x="0px" y="0px" viewBox="0 0 404.5 95.7"
	 style="enable-background:new 0 0 404.5 95.7;" xml:space="preserve">
<style type="text/css">
	.st0{fill:#00237D;}
	.st1{fill:#D0142C;}
	.st2{fill:#63B181;}
	.st3{fill:#4074D4;}
	.st4{fill:#FFF87F;}
	.st5{fill:#454646;}
	.st6{fill:#FFFFFF;}
</style>
<sodipodi:namedview  bordercolor="#666666" borderopacity="1.0" fit-margin-bottom="0" fit-margin-left="0" fit-margin-right="0" fit-margin-top="0" id="base" inkscape:current-layer="layer1" inkscape:cx="265.44123" inkscape:cy="101.5789" inkscape:document-units="mm" inkscape:pageopacity="0.0" inkscape:pageshadow="2" inkscape:window-height="740" inkscape:window-maximized="1" inkscape:window-width="1366" inkscape:window-x="0" inkscape:window-y="0" inkscape:zoom="0.98994949" pagecolor="#ffffff" showgrid="false">
	</sodipodi:namedview>
<g id="layer1" transform="translate(-48.097903,-178.55458)" inkscape:groupmode="layer" inkscape:label="Layer 1">
	<path id="path4533_1_" inkscape:connector-curvature="0" class="st0" d="M403.9,258.9H264.3v-32.6h139.7V258.9z"/>
	<path id="path4533" inkscape:connector-curvature="0" class="st1" d="M264.3,258.9H159.2v-32.6h105.1V258.9z"/>
	<g id="g4535" transform="matrix(0.67430045,0,0,-0.67430045,71.297342,207.37985)">
		<path id="path4537" inkscape:connector-curvature="0" class="st2" d="M63.1-78.4l-26.5-2.8l-30,13.3l-19-21.7l34.2,6.4l32.1-10.2
			l13.9,0.4L63.1-78.4z"/>
	</g>
	<g id="g4547" transform="matrix(0.67430045,0,0,-0.67430045,73.717274,204.54941)">
		<path id="path4549" inkscape:connector-curvature="0" class="st2" d="M69.7-70.7l6.5-26.4l14.7,0.4L80.7-72.1l4.9,23.9
			C77.4-54.7,67-58.5,55.8-58.5c-11.7,0-22.4,4.1-30.8,10.9l-7.8-7.8l-6.1-8.8l23.1-11.1L69.7-70.7z"/>
	</g>
	<g id="g4551" transform="matrix(0.67430045,0,0,-0.67430045,71.297342,207.37985)">
		<path id="path4553" inkscape:connector-curvature="0" class="st3" d="M63.1-78.4l4.7-14.7l12,0.2l-6.5,26.4L37.9-71L14.7-60
			l-8.1-8l30-13.3L63.1-78.4z"/>
	</g>
	<g id="g4555" transform="matrix(0.67430045,0,0,-0.67430045,63.556377,180.68673)">
		<path id="path4557" inkscape:connector-curvature="0" class="st2" d="M42.1-5.8l-7.6,2.9L10-12.2L3-29.2l7.8-18.3L-1.8-71.8l-19,6
			l12.5-22.8L-19-122.8l39.2,39.1l6.6-1l7.5,7.5c-7.5,8.6-12.1,19.8-12.1,32.1C22.1-29,30-14.7,42.1-5.8"/>
	</g>
	<g id="g4559" transform="matrix(0.67430045,0,0,-0.67430045,52.374853,194.15816)">
		<path id="path4561" inkscape:connector-curvature="0" class="st2" d="M11.6-42.5l6.7,15.8l-6.9,16.3l7.1,17.9l-24.9,9.5L4.6-11.6
			l-9.7-25.6L11.6-42.5z"/>
	</g>
	<g id="g4563" transform="matrix(0.67430045,0,0,-0.67430045,54.270449,186.26399)">
		<path id="path4565" inkscape:connector-curvature="0" class="st4" d="M16.8-21l7,17.1l-4.3-1.6l-3.8,1.4L8.6-22l6.9-16.3L8.8-54.2
			L-8-48.8l-1.2-3.1l2.1-5.5l19-6l12.6,24.2L16.8-21z"/>
	</g>
	<g id="g4567" transform="matrix(0.67430045,0,0,-0.67430045,78.505887,190.13232)">
		<path id="path4569" inkscape:connector-curvature="0" class="st5" d="M82.7-31.5c0-19-15.4-34.4-34.4-34.4
			c-19,0-34.4,15.4-34.4,34.4S29.3,2.9,48.3,2.9S82.7-12.5,82.7-31.5 M48.3,17.2C21.5,17.2-0.4-4.7-0.4-31.5c0-11.3,4-22.3,11.2-31
			l-6.6-6.6L-3.4-69l-41.3-41.3l14.4-14.4L11-83.4l-0.1,7.6l6.7,6.6c8.7-7.1,19.6-11,30.7-11C75.2-80.2,97-58.3,97-31.5
			C97-4.7,75.2,17.2,48.3,17.2z"/>
	</g>
	<g id="g4571" transform="matrix(0.67430045,0,0,-0.67430045,90.633786,197.41571)">
		<path id="path4573" inkscape:connector-curvature="0" class="st6" d="M115.7-51.3v-18.1c0-6.9,3-9.8,7.1-9.8c4.5,0,7.4,3,7.4,9.8
			v18.1h4v-17.8c0-9.4-4.9-13.2-11.6-13.2c-6.3,0-11,3.6-11,13.1v18H115.7z"/>
	</g>
	<g id="g4575" transform="matrix(0.67430045,0,0,-0.67430045,96.67545,204.69012)">
		<path id="path4577" inkscape:connector-curvature="0" class="st6" d="M132.2-71.1v30.6h4.3l9.8-15.5c2.3-3.6,4-6.8,5.5-9.9l0.1,0
			c-0.4,4.1-0.5,7.8-0.5,12.6v12.8h3.7v-30.6h-4l-9.7,15.5c-2.1,3.4-4.2,6.9-5.7,10.2l-0.1,0c0.2-3.9,0.3-7.5,0.3-12.6v-13.1H132.2z
			"/>
	</g>
	<path id="path4579" inkscape:connector-curvature="0" class="st6" d="M208.6,252.6h-2.7V232h2.7V252.6z"/>
	<g id="g4581" transform="matrix(0.67430045,0,0,-0.67430045,107.73425,198.21442)">
		<path id="path4583" inkscape:connector-curvature="0" class="st6" d="M162.3-53.5H153v3.4h22.6v-3.4h-9.3v-27.2h-4V-53.5z"/>
	</g>
	<g id="g4585" transform="matrix(0.67430045,0,0,-0.67430045,115.48149,201.27972)">
		<path id="path4587" inkscape:connector-curvature="0" class="st6" d="M183.3-61.8h-11.9v-11h13.2v-3.3h-17.2v30.6H184v-3.3h-12.6
			v-9.7h11.9V-61.8z"/>
	</g>
	<g id="g4589" transform="matrix(0.67430045,0,0,-0.67430045,117.96203,203.94536)">
		<path id="path4591" inkscape:connector-curvature="0" class="st6" d="M190.1-69.1c1-0.2,2.4-0.2,4-0.2c8.4,0,13,4.7,13,13
			c0,7.2-4,11.8-12.4,11.8c-2,0-3.6-0.2-4.6-0.4V-69.1z M186.1-42c2.4,0.4,5.3,0.6,8.4,0.6c5.7,0,9.7-1.3,12.4-3.8
			c2.7-2.5,4.3-6,4.3-11c0-5-1.5-9.1-4.4-11.9c-2.9-2.9-7.6-4.4-13.5-4.4c-2.8,0-5.2,0.1-7.2,0.4V-42z"/>
	</g>
	<g id="g4593" transform="matrix(0.67430045,0,0,-0.67430045,126.49484,197.41571)">
		<path id="path4595" inkscape:connector-curvature="0" class="st6" d="M213.3-51.3h3.9v-14.7h0.1c0.8,1.2,1.6,2.3,2.4,3.3l9.3,11.5
			h4.9l-11.1-13l11.9-17.6h-4.7l-10.1,15l-2.9-3.4v-11.7h-3.9V-51.3z"/>
	</g>
	<path id="path4597" inkscape:connector-curvature="0" class="st6" d="M289.6,252.6h-2.7V232h2.7V252.6z"/>
	<g id="g4599" transform="matrix(0.67430045,0,0,-0.67430045,134.92096,204.69012)">
		<path id="path4601" inkscape:connector-curvature="0" class="st6" d="M236.2-71.1v30.6h4.3l9.8-15.5c2.3-3.6,4-6.8,5.5-9.9l0.1,0
			c-0.4,4.1-0.5,7.8-0.5,12.6v12.8h3.7v-30.6h-4l-9.7,15.5c-2.1,3.4-4.2,6.9-5.7,10.2l-0.1,0c0.2-3.9,0.3-7.5,0.3-12.6v-13.1H236.2z
			"/>
	</g>
	<g id="g4603" transform="matrix(0.67430045,0,0,-0.67430045,147.55689,204.36614)">
		<path id="path4605" inkscape:connector-curvature="0" class="st6" d="M270.6-70.2c-1.8-0.6-5.3-1.7-9.4-1.7c-4.6,0-8.4,1.2-11.4,4
			c-2.6,2.5-4.3,6.6-4.3,11.4c0,9.1,6.3,15.8,16.6,15.8c3.5,0,6.3-0.8,7.6-1.4l-1-3.2c-1.6,0.7-3.7,1.3-6.8,1.3
			c-7.4,0-12.3-4.6-12.3-12.3c0-7.8,4.7-12.3,11.8-12.3c2.6,0,4.4,0.4,5.3,0.8v9.1h-6.2v3.2h10.1V-70.2z"/>
	</g>
	<g id="g4607" transform="matrix(0.67430045,0,0,-0.67430045,149.92873,203.94536)">
		<path id="path4609" inkscape:connector-curvature="0" class="st6" d="M277.1-69.1c1-0.2,2.4-0.2,4-0.2c8.4,0,13,4.7,13,13
			c0,7.2-4,11.8-12.4,11.8c-2,0-3.6-0.2-4.6-0.4V-69.1z M273.1-42c2.4,0.4,5.3,0.6,8.4,0.6c5.7,0,9.7-1.3,12.4-3.8
			c2.7-2.5,4.3-6,4.3-11c0-5-1.5-9.1-4.4-11.9c-2.9-2.9-7.6-4.4-13.5-4.4c-2.8,0-5.2,0.1-7.2,0.4V-42z"/>
	</g>
	<g id="g4611" transform="matrix(0.67430045,0,0,-0.67430045,156.74686,201.09604)">
		<path id="path4613" inkscape:connector-curvature="0" class="st6" d="M295.6-61.3c0-6.5,3.5-12.4,9.8-12.4c6.3,0,9.8,5.8,9.8,12.7
			c0,6.1-3.2,12.4-9.8,12.4C298.9-48.6,295.6-54.6,295.6-61.3 M319.3-60.8c0-10.5-6.4-16.1-14.2-16.1c-8.1,0-13.7,6.3-13.7,15.5
			c0,9.7,6,16.1,14.2,16.1C313.9-45.4,319.3-51.8,319.3-60.8"/>
	</g>
	<g id="g4615" transform="matrix(0.67430045,0,0,-0.67430045,169.73893,201.4951)">
		<path id="path4617" inkscape:connector-curvature="0" class="st6" d="M331-62.4c-0.2,4.3-0.5,9.4-0.5,13.2h-0.1
			c-1-3.6-2.3-7.4-3.9-11.6l-5.4-14.8h-3l-4.9,14.6c-1.5,4.3-2.7,8.3-3.5,11.9h-0.1c-0.1-3.8-0.3-8.9-0.6-13.5l-0.8-13.1h-3.8
			l2.1,30.6h5l5.2-14.8c1.3-3.8,2.3-7.1,3.1-10.3h0.1c0.8,3.1,1.9,6.4,3.2,10.3l5.4,14.8h5l1.9-30.6h-3.9L331-62.4z"/>
	</g>
	<g id="g4619" transform="matrix(0.67430045,0,0,-0.67430045,96.763042,186.62624)">
		<path id="path4621" inkscape:connector-curvature="0" class="st5" d="M132.4-22c0,7.2-2.9,15.4-11.4,15.4
			c-8.5,0-11.4-8.7-11.4-15.4c0-7.1,2.9-15.4,11.4-15.4C129.4-37.4,132.4-28.6,132.4-22 M101.8-22c0,10.8,5.1,22.6,19.1,22.6
			c14.1,0,19.1-11.8,19.1-22.6s-5.1-22.6-19.1-22.6C107-44.5,101.8-32.8,101.8-22"/>
	</g>
	<g id="g4623" transform="matrix(0.67430045,0,0,-0.67430045,105.08512,188.03573)">
		<path id="path4625" inkscape:connector-curvature="0" class="st5" d="M155.1-25.8c0,5.8-2.4,9.8-6.9,9.8c-2.9,0-4.9-1.2-6.2-3.1
			v-13.2c1.1-1.6,3.2-3.1,6.2-3.1C152.6-35.5,155.1-32,155.1-25.8 M142-39.1v-11.7l-7.3-3.4v44.4h7.3v-2.4c1.6,1.9,3.9,3.2,7.3,3.2
			c7.9,0,13.1-6,13.1-16.7c0-10.5-5.4-16.7-13.2-16.7C145.8-42.5,143.4-41,142-39.1"/>
	</g>
	<g id="g4627" transform="matrix(0.67430045,0,0,-0.67430045,113.02137,187.24949)">
		<path id="path4629" inkscape:connector-curvature="0" class="st5" d="M176.6-23.7c-0.3,4.9-3.4,7-6.7,7c-3.9,0-7-2-7.4-7H176.6z
			 M155.3-26.9c0,10.4,5.8,16.7,14.7,16.7c7.7,0,13.9-4.7,13.9-15c0-1.3-0.1-3.1-0.2-4.5h-21.1c0.3-4.7,3.7-7.5,7.5-7.5
			c2.8,0,5.1,1.1,6.7,3.3l4.6-4.7c-2.5-3-6.2-5-11.3-5C160.9-43.6,155.3-37.4,155.3-26.9"/>
	</g>
	<g id="g4631" transform="matrix(0.67430045,0,0,-0.67430045,120.83901,187.47207)">
		<path id="path4633" inkscape:connector-curvature="0" class="st5" d="M197.9-24.3c0,5.2-2.2,7.4-5.9,7.4c-3.9,0-6.5-2.1-6.5-7.3
			v-18.4h-7.3v31.9h7.3v-3c2.1,2.5,4.8,3.7,8.4,3.7c6.1,0,11.3-3.3,11.3-13v-19.6h-7.3V-24.3z"/>
	</g>
	<g id="g4635" transform="matrix(0.67430045,0,0,-0.67430045,123.90889,189.31157)">
		<path id="path4637" inkscape:connector-curvature="0" class="st5" d="M206.3-29.3l6.9,2.6c1.8-4,5.3-6.7,9.8-6.7
			c4.5,0,7.5,2.1,7.5,6.1c0,4.2-4.4,5.7-9.4,7.4c-6.2,2.1-13.2,4.6-13.2,12.8c0,6.4,5.2,11.7,14.3,11.7c7.6,0,12.4-4,14-9.4L229.5-7
			c-1.1,2.6-3.6,4.5-7.7,4.5c-3.9,0-6.2-1.7-6.2-4.7c0-3.2,3.8-4.5,8.4-6c6.4-2.2,14.2-5,14.2-14.2c0-8.4-6.7-13.2-15.3-13.2
			C214.7-40.6,208.6-36.2,206.3-29.3"/>
	</g>
	<g id="g4639" transform="matrix(0.67430045,0,0,-0.67430045,133.49205,190.05371)">
		<path id="path4641" inkscape:connector-curvature="0" class="st5" d="M232.3-31.3v18.1h-4.7v6.4h4.7v9.7l7.3,3.5V-6.8h7.4v-6.4
			h-7.4v-16.7c0-1.8,0.8-3.1,2.7-3.1c1.6,0,3.3,0.5,5,1.4l-0.9-6.5c-1.8-0.9-4.1-1.4-6.7-1.4C234.5-39.5,232.3-36.3,232.3-31.3"/>
	</g>
	<g id="g4643" transform="matrix(0.67430045,0,0,-0.67430045,138.38727,184.23752)">
		<path id="path4645" inkscape:connector-curvature="0" class="st5" d="M245.7-15.5h7.3v-3.3c1.3,2.6,3.4,4.1,6.6,4.1
			c2.4,0,4.3-0.8,5.9-2.2l-1.1-6.7c-1.3,0.9-3,1.7-5.4,1.7c-2.8,0-6-1.6-6-7.6v-17.8h-7.3V-15.5z"/>
	</g>
	<g id="g4647" transform="matrix(0.67430045,0,0,-0.67430045,148.66841,187.24949)">
		<path id="path4649" inkscape:connector-curvature="0" class="st5" d="M273.6-23.7c-0.3,4.9-3.4,7-6.7,7c-3.9,0-7-2-7.4-7H273.6z
			 M252.2-26.9c0,10.4,5.8,16.7,14.7,16.7c7.7,0,13.9-4.7,13.9-15c0-1.3-0.1-3.1-0.2-4.5h-21.1c0.2-4.7,3.7-7.5,7.5-7.5
			c2.8,0,5.1,1.1,6.7,3.3l4.6-4.7c-2.5-3-6.2-5-11.3-5C257.9-43.6,252.2-37.4,252.2-26.9"/>
	</g>
	<g id="g4651" transform="matrix(0.67430045,0,0,-0.67430045,156.51502,187.24949)">
		<path id="path4653" inkscape:connector-curvature="0" class="st5" d="M295-23.7c-0.3,4.9-3.4,7-6.7,7c-3.9,0-7-2-7.4-7H295z
			 M273.6-26.9c0,10.4,5.8,16.7,14.7,16.7c7.7,0,13.9-4.7,13.9-15c0-1.3-0.1-3.1-0.2-4.5h-21.1c0.2-4.7,3.7-7.5,7.5-7.5
			c2.8,0,5.1,1.1,6.7,3.3l4.6-4.7c-2.5-3-6.2-5-11.3-5C279.3-43.6,273.6-37.4,273.6-26.9"/>
	</g>
	<g id="g4655" transform="matrix(0.67430045,0,0,-0.67430045,159.98533,190.05371)">
		<path id="path4657" inkscape:connector-curvature="0" class="st5" d="M304.4-31.3v18.1h-4.7v6.4h4.7v9.7l7.3,3.5V-6.8h7.4v-6.4
			h-7.4v-16.7c0-1.8,0.8-3.1,2.7-3.1c1.6,0,3.3,0.5,5,1.4l-0.9-6.5c-1.8-0.9-4.1-1.4-6.7-1.4C306.6-39.5,304.4-36.3,304.4-31.3"/>
	</g>
	<g id="g4659" transform="matrix(0.67430045,0,0,-0.67430045,172.6996,191.81916)">
		<path id="path4661" inkscape:connector-curvature="0" class="st5" d="M339-36.1v23.2c0,1.6,0.1,4.1,0.2,5.2
			c-0.6-1.7-1.4-3.8-2-5.4l-10.6-23.8l-10.6,23.9c-0.7,1.5-1.5,3.6-2.1,5.2c0.1-1.2,0.2-3.7,0.2-5.2v-23.2h-7.5V7.6h7.5l11.2-25.6
			c0.4-1.1,0.9-2.2,1.2-3.2c0.3,1,0.8,2.2,1.2,3.2l11.3,25.6h7.3v-43.7H339z"/>
	</g>
	<g id="g4663" transform="matrix(0.67430045,0,0,-0.67430045,180.7984,189.7419)">
		<path id="path4665" inkscape:connector-curvature="0" class="st5" d="M361.1-30.4v4.1c-1.7,0.8-4,1.3-6.4,1.3
			c-3.6,0-6.6-1.2-6.6-4.3c0-2.5,2-4.2,5.8-4.2C357.1-33.5,359.4-32.1,361.1-30.4 M361.1-36.6c-1.6-1.6-4.2-3.3-8.5-3.3
			c-6.6,0-11.5,3.6-11.5,10.6c0,7.4,6.2,10.5,12.5,10.5c3,0,5.6-0.6,7.5-1.7v1.7c0,4.2-2.1,5.8-6.2,5.8c-3.9,0-6.8-1.1-9.5-3
			l-2.2,5.9c2.9,1.9,7.1,3.5,12.5,3.5c5.6,0,12.6-1.4,12.6-12.1v-20.5h-7.1V-36.6z"/>
	</g>
	<g id="g4667" transform="matrix(0.67430045,0,0,-0.67430045,189.0474,188.03573)">
		<path id="path4669" inkscape:connector-curvature="0" class="st5" d="M383.5-25.8c0,5.8-2.4,9.8-6.9,9.8c-2.9,0-4.9-1.2-6.2-3.1
			v-13.2c1.1-1.6,3.2-3.1,6.2-3.1C381-35.5,383.5-32,383.5-25.8 M370.4-39.1v-11.7l-7.3-3.4v44.4h7.3v-2.4c1.6,1.9,3.9,3.2,7.3,3.2
			c7.9,0,13.1-6,13.1-16.7c0-10.5-5.4-16.7-13.2-16.7C374.2-42.5,371.9-41,370.4-39.1"/>
	</g>
</g>
</svg>
