<?xml version="1.0" encoding="utf-8"?>
<!-- Generator: Adobe Illustrator 21.0.2, SVG Export Plug-In . SVG Version: 6.00 Build 0)  -->
<svg version="1.1"
	 id="svg5194" inkscape:export-filename="/home/anxhelo/Documents/ura works folder/OSM UK/vertical black.png" inkscape:export-xdpi="141.06" inkscape:export-ydpi="141.06" inkscape:version="0.92.1 r" sodipodi:docname="icon color.svg" xmlns:cc="http://creativecommons.org/ns#" xmlns:dc="http://purl.org/dc/elements/1.1/" xmlns:inkscape="http://www.inkscape.org/namespaces/inkscape" xmlns:rdf="http://www.w3.org/1999/02/22-rdf-syntax-ns#" xmlns:sodipodi="http://sodipodi.sourceforge.net/DTD/sodipodi-0.dtd" xmlns:svg="http://www.w3.org/2000/svg"
	 xmlns="http://www.w3.org/2000/svg" xmlns:xlink="http://www.w3.org/1999/xlink" x="0px" y="0px" viewBox="0 0 85.3 90.4"
	 style="enable-background:new 0 0 85.3 90.4;" xml:space="preserve">
<style type="text/css">
	.st0{fill:#00237D;}
	.st1{fill:#63B181;}
	.st2{fill:#4074D4;}
	.st3{fill:#FFF87F;}
	.st4{fill:#454646;}
	.st5{fill:#D0142C;}
	.st6{fill:#FFFFFF;}
</style>
<sodipodi:namedview  bordercolor="#666666" borderopacity="1.0" fit-margin-bottom="0" fit-margin-left="0" fit-margin-right="0" fit-margin-top="0" id="base" inkscape:current-layer="layer1" inkscape:cx="-30.847662" inkscape:cy="93.552481" inkscape:document-units="mm" inkscape:pageopacity="0.0" inkscape:pageshadow="2" inkscape:window-height="740" inkscape:window-maximized="1" inkscape:window-width="1366" inkscape:window-x="0" inkscape:window-y="0" inkscape:zoom="0.98994949" pagecolor="#ffffff" showgrid="false">
	</sodipodi:namedview>
<g id="layer1" transform="translate(-131.85967,-260.58463)" inkscape:groupmode="layer" inkscape:label="Layer 1">
	<g id="g6953">
		<path id="path4829_1_" inkscape:connector-curvature="0" class="st0" d="M195.1,350.9h18.7v-25.3h-18.7V350.9z"/>
		<g id="g4801" transform="matrix(0.63491254,0,0,-0.63491254,141.27879,284.34421)">
			<path id="path4803" inkscape:connector-curvature="0" class="st1" d="M27.2-68.7L8.7-87.2l29.6,5.6l11.3-3.6v6.7L27.2-68.7z"/>
		</g>
		<g id="g4805" transform="matrix(0.63491254,0,0,-0.63491254,145.13443,278.87773)">
			<path id="path4807" inkscape:connector-curvature="0" class="st1" d="M38.4-52.9L32-59.2l0.1-7.1l-3.5-3.5l14.9-7.1v3.1v5.7h5.7
				h43.7l3,14.8c-0.6-0.5-1.3-0.9-2-1.4c-7.5-5.3-16.7-8.5-26.6-8.5C56.8-63.2,46.5-59.5,38.4-52.9"/>
		</g>
		<g id="g4809" transform="matrix(0.63491254,0,0,-0.63491254,141.27879,284.34421)">
			<path id="path4811" inkscape:connector-curvature="0" class="st2" d="M27.2-68.7l22.4-9.9v10.3l-14.9,7.1L27.2-68.7z"/>
		</g>
		<g id="g4813" transform="matrix(0.63491254,0,0,-0.63491254,142.2932,278.85374)">
			<path id="path4815" inkscape:connector-curvature="0" class="st1" d="M30.1-52.8l6.3,6.3c-6.8,8.2-10.6,18.6-10.6,29.3
				c0,8.6,2.4,16.6,6.5,23.4c0.2,0.4,0.5,0.9,0.8,1.3c0.3,0.4,0.5,0.8,0.8,1.2c3,4.5,6.8,8.4,11.1,11.6l-7.2,2.7l-23.1-8.8l0,0h0
				L8.1-1.9l7.4-17.3l0,0l0,0L3.5-42.1l-18,5.7l11.8-21.6l-9.3-29.7L23-52.7L30.1-52.8z"/>
		</g>
		<g id="g4817" transform="matrix(0.63491254,0,0,-0.63491254,137.08056,271.11625)">
			<path id="path4819" inkscape:connector-curvature="0" class="st1" d="M15.1-30.4L8.5-15.1l6.7,17l-23.5,9L2.1-16.2l-9.2-24.1
				l15.9-5L15.1-30.4z"/>
		</g>
		<g id="g4821" transform="matrix(0.63491254,0,0,-0.63491254,139.00071,271.32266)">
			<path id="path4823" inkscape:connector-curvature="0" class="st3" d="M20.6-31L20.6-31l-7.4,17.3v0l6.6,16.1l0,0l-4-1.5l-3.6,1.4
				l-6.7-17l6.5-15.4l-6.3-15l-15.9,5l-1.1-2.9l2-5.2l0,0l18-5.7L20.6-31z"/>
		</g>
		<g id="g4825" transform="matrix(0.63491254,0,0,-0.63491254,151.63251,263.60046)">
			<path id="path4827" inkscape:connector-curvature="0" class="st4" d="M57.1-8.7c17.9,0,32.5-14.6,32.5-32.5
				c0-17.9-14.6-32.5-32.5-32.5S24.6-59.2,24.6-41.2S39.2-8.7,57.1-8.7 M18.4-93.8l3.5,3.5l-0.1,7.1v0.1l6.3,6.3c0,0,0,0,0,0
				c8.2-6.7,18.5-10.3,29-10.3c9.9,0,19.1,3.2,26.6,8.5c11.7,8.3,19.4,22,19.4,37.5c0,25.4-20.6,46-46,46c-15.8,0-29.7-8-38-20.1
				c-0.3-0.4-0.5-0.8-0.8-1.2c-0.3-0.4-0.5-0.9-0.8-1.3c-4.1-6.9-6.5-14.9-6.5-23.4c0-10.7,3.7-21.1,10.6-29.3l-6.3-6.3l-7.2,0.1
				l-34.9-34.9l-4.1-4.1l13.6-13.6l9.5,9.5l18.5,18.5L18.4-93.8z"/>
		</g>
		<path id="path4829" inkscape:connector-curvature="0" class="st5" d="M176.4,350.9h18.7v-25.3h-18.7V350.9z"/>
		<g id="g4831" transform="matrix(0.63491254,0,0,-0.63491254,150.15385,285.11321)">
			<path id="path4833" inkscape:connector-curvature="0" class="st6" d="M50.1-70.9v-14.9c0-5.6,2.5-8,5.9-8c3.7,0,6.1,2.5,6.1,8
				v14.9h3.3v-14.7c0-7.7-4.1-10.9-9.5-10.9c-5.2,0-9,3-9,10.8v14.8H50.1z"/>
		</g>
		<g id="g4835" transform="matrix(0.63491254,0,0,-0.63491254,154.8388,285.11321)">
			<path id="path4837" inkscape:connector-curvature="0" class="st6" d="M69.3-70.9h3.2V-83h0.1c0.7,1,1.3,1.9,2,2.7l7.7,9.4h4
				l-9.1-10.7L87.1-96h-3.8l-8.3,12.4l-2.4-2.8V-96h-3.2V-70.9z"/>
		</g>
	</g>
</g>
</svg>
