<?xml version="1.0" encoding="utf-8"?>
<!-- Generator: Adobe Illustrator 21.0.2, SVG Export Plug-In . SVG Version: 6.00 Build 0)  -->
<svg version="1.1"
	 id="svg5194" inkscape:export-filename="/home/anxhelo/Documents/ura works folder/OSM UK/horizontal color.png" inkscape:export-xdpi="141.06" inkscape:export-ydpi="141.06" inkscape:version="0.92.1 r" sodipodi:docname="vertical color.svg" xmlns:cc="http://creativecommons.org/ns#" xmlns:dc="http://purl.org/dc/elements/1.1/" xmlns:inkscape="http://www.inkscape.org/namespaces/inkscape" xmlns:rdf="http://www.w3.org/1999/02/22-rdf-syntax-ns#" xmlns:sodipodi="http://sodipodi.sourceforge.net/DTD/sodipodi-0.dtd" xmlns:svg="http://www.w3.org/2000/svg"
	 xmlns="http://www.w3.org/2000/svg" xmlns:xlink="http://www.w3.org/1999/xlink" x="0px" y="0px" viewBox="0 0 227.5 165.9"
	 style="enable-background:new 0 0 227.5 165.9;" xml:space="preserve">
<style type="text/css">
	.st0{fill:#D0142C;}
	.st1{fill:#00237D;}
	.st2{fill:#63B181;}
	.st3{fill:#4074D4;}
	.st4{fill:#FFF87F;}
	.st5{fill:#454646;}
	.st6{fill:#FFFFFF;}
</style>
<sodipodi:namedview  bordercolor="#666666" borderopacity="1.0" fit-margin-bottom="0" fit-margin-left="0" fit-margin-right="0" fit-margin-top="0" id="base" inkscape:current-layer="layer1" inkscape:cx="34.911192" inkscape:cy="148.31178" inkscape:document-units="mm" inkscape:pageopacity="0.0" inkscape:pageshadow="2" inkscape:window-height="740" inkscape:window-maximized="1" inkscape:window-width="1366" inkscape:window-x="0" inkscape:window-y="0" inkscape:zoom="0.98994949" pagecolor="#ffffff" showgrid="false">
	</sodipodi:namedview>
<g id="layer1" transform="translate(-97.241071,-207.54507)" inkscape:groupmode="layer" inkscape:label="Layer 1">
	<g id="g6567">
		<path id="path4671" inkscape:connector-curvature="0" class="st0" d="M196.7,373.4h-83.2v-25.8h83.2V373.4z"/>
		<path id="path4671_1_" inkscape:connector-curvature="0" class="st1" d="M306.1,373.4H196.7v-25.8h109.3V373.4z"/>
		<g id="g4673" transform="matrix(0.73462473,0,0,-0.73462473,145.01769,237.2233)">
			<path id="path4675" inkscape:connector-curvature="0" class="st2" d="M119.3-74.1l-25.1-2.6L65.9-64.2L48-84.7l32.3,6.1l30.3-9.7
				l13.1,0.3L119.3-74.1z"/>
		</g>
		<g id="g4677" transform="matrix(0.73462473,0,0,-0.73462473,147.50933,234.30907)">
			<path id="path4679" inkscape:connector-curvature="0" class="st2" d="M125.5-66.8l6.1-24.9l13.9,0.4l-9.6,23.2l4.6,22.5
				c-7.8-6-17.6-9.6-28.2-9.6c-11,0-21.1,3.9-29.1,10.3l-7.4-7.4l-5.8-8.3L92-71.1L125.5-66.8z"/>
		</g>
		<g id="g4681" transform="matrix(0.73462473,0,0,-0.73462473,145.01769,237.2233)">
			<path id="path4683" inkscape:connector-curvature="0" class="st3" d="M119.3-74.1l4.4-13.9l11.3,0.2l-6.1,24.9l-33.5-4.3
				L73.6-56.7l-7.7-7.5l28.3-12.5L119.3-74.1z"/>
		</g>
		<g id="g4685" transform="matrix(0.73462473,0,0,-0.73462473,137.04754,209.73981)">
			<path id="path4687" inkscape:connector-curvature="0" class="st2" d="M99.4-5.5l-7.2,2.7l-23.1-8.8l-6.6-16.1L69.9-45L58-67.8
				l-18,5.7l11.8-21.6L41.7-116l37.1,36.9l6.2-0.9L92-73c-7.1,8.1-11.4,18.7-11.4,30.4C80.6-27.4,88-13.9,99.4-5.5"/>
		</g>
		<g id="g4689" transform="matrix(0.73462473,0,0,-0.73462473,125.53494,223.61013)">
			<path id="path4691" inkscape:connector-curvature="0" class="st2" d="M70.7-40.1l6.3,15L70.4-9.8l6.7,17l-23.5,9L64-10.9
				l-9.2-24.1L70.7-40.1z"/>
		</g>
		<g id="g4693" transform="matrix(0.73462473,0,0,-0.73462473,127.48669,215.48225)">
			<path id="path4695" inkscape:connector-curvature="0" class="st4" d="M75.5-19.8l6.6,16.1l-4-1.5l-3.6,1.4l-6.7-17l6.5-15.4
				l-6.3-15l-15.9,5L51-49.1l2-5.2L71-60l11.9,22.9L75.5-19.8z"/>
		</g>
		<g id="g4697" transform="matrix(0.73462473,0,0,-0.73462473,152.43969,219.46509)">
			<path id="path4699" inkscape:connector-curvature="0" class="st5" d="M137.9-29.8c0-17.9-14.6-32.5-32.5-32.5
				c-17.9,0-32.5,14.6-32.5,32.5S87.4,2.8,105.3,2.8S137.9-11.8,137.9-29.8 M105.3,16.2c-25.4,0-46-20.6-46-46
				c0-10.7,3.7-21.1,10.6-29.3l-6.3-6.3l-7.2,0.1l-39.1-39.1L31-117.9l39.1,39.1L70-71.7l6.3,6.3c8.2-6.7,18.5-10.3,29.1-10.3
				c25.4,0,46,20.6,46,46C151.3-4.4,130.7,16.2,105.3,16.2z"/>
		</g>
		<g id="g4701" transform="matrix(0.73462473,0,0,-0.73462473,105.6255,258.53955)">
			<path id="path4703" inkscape:connector-curvature="0" class="st6" d="M20.9-127.4v-13.2c0-5,2.2-7.1,5.2-7.1
				c3.3,0,5.4,2.2,5.4,7.1v13.2h2.9v-13c0-6.8-3.6-9.6-8.4-9.6c-4.6,0-8,2.6-8,9.5v13.1H20.9z"/>
		</g>
		<g id="g4705" transform="matrix(0.73462473,0,0,-0.73462473,110.41203,264.30424)">
			<path id="path4707" inkscape:connector-curvature="0" class="st6" d="M32.9-141.7v22.2H36l7.1-11.3c1.6-2.6,2.9-5,4-7.2l0.1,0
				c-0.3,3-0.3,5.7-0.3,9.1v9.3h2.7v-22.2h-2.9l-7.1,11.3c-1.6,2.5-3,5-4.2,7.4l-0.1,0c0.2-2.8,0.2-5.5,0.2-9.2v-9.5H32.9z"/>
		</g>
		<path id="path4709" inkscape:connector-curvature="0" class="st6" d="M152.6,368.4h-2.1v-16.3h2.1V368.4z"/>
		<g id="g4711" transform="matrix(0.73462473,0,0,-0.73462473,119.17447,259.17266)">
			<path id="path4713" inkscape:connector-curvature="0" class="st6" d="M54.8-128.9H48v2.4h16.5v-2.4h-6.8v-19.8h-2.9V-128.9z"/>
		</g>
		<g id="g4715" transform="matrix(0.73462473,0,0,-0.73462473,125.31329,261.60139)">
			<path id="path4717" inkscape:connector-curvature="0" class="st6" d="M70.1-135h-8.6v-8h9.6v-2.4H58.6v22.2h12v-2.4h-9.1v-7h8.6
				V-135z"/>
		</g>
		<g id="g4719" transform="matrix(0.73462473,0,0,-0.73462473,127.27753,263.71419)">
			<path id="path4721" inkscape:connector-curvature="0" class="st6" d="M75-140.3c0.7-0.1,1.8-0.2,2.9-0.2c6.1,0,9.5,3.4,9.5,9.4
				c0,5.2-2.9,8.6-9,8.6c-1.5,0-2.6-0.1-3.4-0.3V-140.3z M72.1-120.6c1.7,0.3,3.8,0.5,6.1,0.5c4.1,0,7.1-1,9-2.8
				c2-1.8,3.1-4.4,3.1-8c0-3.6-1.1-6.6-3.2-8.6c-2.1-2.1-5.5-3.2-9.8-3.2c-2,0-3.8,0.1-5.2,0.3V-120.6z"/>
		</g>
		<g id="g4723" transform="matrix(0.73462473,0,0,-0.73462473,134.03842,258.53955)">
			<path id="path4725" inkscape:connector-curvature="0" class="st6" d="M91.9-127.4h2.9v-10.7h0.1c0.6,0.9,1.2,1.6,1.7,2.4l6.8,8.4
				h3.6l-8.1-9.4l8.7-12.8h-3.4l-7.3,10.9l-2.1-2.4v-8.5h-2.9V-127.4z"/>
		</g>
		<path id="path4727" inkscape:connector-curvature="0" class="st6" d="M216.8,368.4h-2.1v-16.3h2.1V368.4z"/>
		<g id="g4729" transform="matrix(0.73462473,0,0,-0.73462473,140.71456,264.30424)">
			<path id="path4731" inkscape:connector-curvature="0" class="st6" d="M108.6-141.7v22.2h3.1l7.1-11.3c1.6-2.6,2.9-5,4-7.2l0.1,0
				c-0.3,3-0.3,5.7-0.3,9.1v9.3h2.7v-22.2h-2.9l-7.1,11.3c-1.6,2.5-3,5-4.2,7.4l-0.1,0c0.2-2.8,0.2-5.5,0.2-9.2v-9.5H108.6z"/>
		</g>
		<g id="g4733" transform="matrix(0.73462473,0,0,-0.73462473,150.72667,264.04777)">
			<path id="path4735" inkscape:connector-curvature="0" class="st6" d="M133.6-141.1c-1.3-0.5-3.8-1.2-6.8-1.2
				c-3.4,0-6.1,0.9-8.3,2.9c-1.9,1.8-3.1,4.8-3.1,8.3c0,6.6,4.6,11.5,12,11.5c2.6,0,4.6-0.6,5.5-1l-0.7-2.3c-1.2,0.5-2.7,1-4.9,1
				c-5.4,0-8.9-3.4-8.9-8.9c0-5.6,3.4-9,8.6-9c1.9,0,3.2,0.3,3.8,0.6v6.6h-4.5v2.3h7.3V-141.1z"/>
		</g>
		<g id="g4737" transform="matrix(0.73462473,0,0,-0.73462473,152.6049,263.71419)">
			<path id="path4739" inkscape:connector-curvature="0" class="st6" d="M138.3-140.3c0.7-0.1,1.8-0.2,2.9-0.2
				c6.1,0,9.5,3.4,9.5,9.4c0,5.2-2.9,8.6-9,8.6c-1.5,0-2.6-0.1-3.4-0.3V-140.3z M135.4-120.6c1.7,0.3,3.8,0.5,6.1,0.5
				c4.1,0,7.1-1,9-2.8c2-1.8,3.1-4.4,3.1-8c0-3.6-1.1-6.6-3.2-8.6c-2.1-2.1-5.5-3.2-9.8-3.2c-2,0-3.8,0.1-5.2,0.3V-120.6z"/>
		</g>
		<g id="g4741" transform="matrix(0.73462473,0,0,-0.73462473,158.00696,261.45616)">
			<path id="path4743" inkscape:connector-curvature="0" class="st6" d="M151.8-134.6c0-4.8,2.6-9,7.1-9c4.6,0,7.1,4.2,7.1,9.2
				c0,4.4-2.3,9-7.1,9C154.1-125.4,151.8-129.8,151.8-134.6 M169-134.3c0-7.7-4.7-11.7-10.3-11.7c-5.9,0-10,4.6-10,11.3
				c0,7.1,4.4,11.7,10.3,11.7C165.1-123,169-127.7,169-134.3"/>
		</g>
		<g id="g4745" transform="matrix(0.73462473,0,0,-0.73462473,168.30104,261.77256)">
			<path id="path4747" inkscape:connector-curvature="0" class="st6" d="M177.5-135.4c-0.2,3.1-0.4,6.8-0.3,9.6H177
				c-0.8-2.6-1.7-5.4-2.8-8.5l-3.9-10.8h-2.2l-3.6,10.6c-1.1,3.1-1.9,6-2.6,8.6h-0.1c-0.1-2.8-0.2-6.5-0.4-9.8l-0.6-9.5h-2.7
				l1.6,22.2h3.7l3.8-10.8c0.9-2.7,1.7-5.2,2.2-7.5h0.1c0.6,2.2,1.3,4.7,2.3,7.5l4,10.8h3.7l1.4-22.2H178L177.5-135.4z"/>
		</g>
		<g id="g4749" transform="matrix(0.73462473,0,0,-0.73462473,102.99759,249.99521)">
			<path id="path4751" inkscape:connector-curvature="0" class="st5" d="M14.4-106c0,5.2-2.1,11.2-8.3,11.2s-8.3-6.3-8.3-11.2
				c0-5.2,2.1-11.2,8.3-11.2C12.2-117.2,14.4-110.9,14.4-106 M-7.8-106c0,7.8,3.7,16.4,13.9,16.4C16.3-89.6,20-98.2,20-106
				c0-7.8-3.7-16.4-13.9-16.4C-4.1-122.4-7.8-113.9-7.8-106"/>
		</g>
		<g id="g4753" transform="matrix(0.73462473,0,0,-0.73462473,109.59204,251.11146)">
			<path id="path4755" inkscape:connector-curvature="0" class="st5" d="M30.8-108.8c0,4.2-1.8,7.1-5,7.1c-2.1,0-3.5-0.9-4.5-2.3
				v-9.6c0.8-1.2,2.4-2.3,4.5-2.3C29-115.8,30.8-113.3,30.8-108.8 M21.3-118.5v-8.5l-5.3-2.4v32.3h5.3V-99c1.1,1.4,2.8,2.3,5.3,2.3
				c5.8,0,9.5-4.4,9.5-12.1c0-7.6-3.9-12.1-9.6-12.1C24.1-120.9,22.4-119.9,21.3-118.5"/>
		</g>
		<g id="g4757" transform="matrix(0.73462473,0,0,-0.73462473,115.87939,250.4888)">
			<path id="path4759" inkscape:connector-curvature="0" class="st5" d="M46.5-107.2c-0.2,3.5-2.4,5.1-4.9,5.1
				c-2.9,0-5.1-1.5-5.4-5.1H46.5z M31-109.6c0,7.6,4.2,12.1,10.7,12.1c5.6,0,10.1-3.4,10.1-10.9c0-0.9,0-2.2-0.2-3.3H36.3
				c0.2-3.4,2.7-5.4,5.4-5.4c2,0,3.7,0.8,4.9,2.4l3.4-3.4c-1.8-2.2-4.5-3.6-8.2-3.6C35.1-121.8,31-117.2,31-109.6"/>
		</g>
		<g id="g4761" transform="matrix(0.73462473,0,0,-0.73462473,122.07345,250.66489)">
			<path id="path4763" inkscape:connector-curvature="0" class="st5" d="M62-107.7c0,3.8-1.6,5.4-4.3,5.4c-2.9,0-4.7-1.5-4.7-5.3
				V-121h-5.3v23.2H53v-2.2c1.5,1.8,3.5,2.7,6.1,2.7c4.4,0,8.2-2.4,8.2-9.5V-121H62V-107.7z"/>
		</g>
		<g id="g4765" transform="matrix(0.73462473,0,0,-0.73462473,124.50838,252.1216)">
			<path id="path4767" inkscape:connector-curvature="0" class="st5" d="M68.1-111.3l5,1.9c1.3-2.9,3.9-4.9,7.1-4.9
				c3.3,0,5.4,1.5,5.4,4.4c0,3-3.2,4.2-6.8,5.4c-4.5,1.5-9.6,3.3-9.6,9.3c0,4.6,3.8,8.5,10.4,8.5c5.5,0,9-2.9,10.2-6.8L85-95.1
				c-0.8,1.9-2.6,3.3-5.6,3.3c-2.9,0-4.5-1.2-4.5-3.4c0-2.3,2.8-3.3,6.1-4.4c4.6-1.6,10.3-3.6,10.3-10.3c0-6.1-4.9-9.6-11.1-9.6
				C74.2-119.5,69.8-116.4,68.1-111.3"/>
		</g>
		<g id="g4769" transform="matrix(0.73462473,0,0,-0.73462473,132.09998,252.70921)">
			<path id="path4771" inkscape:connector-curvature="0" class="st5" d="M87.1-112.8v13.1h-3.4v4.6h3.4v7l5.3,2.5V-95h5.3v-4.6h-5.3
				v-12.1c0-1.3,0.5-2.2,2-2.2c1.2,0,2.4,0.4,3.6,1l-0.6-4.8c-1.3-0.7-2.9-1-4.9-1C88.6-118.7,87.1-116.5,87.1-112.8"/>
		</g>
		<g id="g4773" transform="matrix(0.73462473,0,0,-0.73462473,135.97828,248.10413)">
			<path id="path4775" inkscape:connector-curvature="0" class="st5" d="M96.7-101.3h5.3v-2.4c0.9,1.9,2.4,2.9,4.8,2.9
				c1.7,0,3.1-0.6,4.3-1.6l-0.8-4.9c-1,0.7-2.2,1.2-3.9,1.2c-2,0-4.4-1.1-4.4-5.5v-13h-5.3V-101.3z"/>
		</g>
		<g id="g4777" transform="matrix(0.73462473,0,0,-0.73462473,144.12087,250.4888)">
			<path id="path4779" inkscape:connector-curvature="0" class="st5" d="M117.1-107.2c-0.2,3.5-2.4,5.1-4.9,5.1
				c-2.9,0-5.1-1.5-5.4-5.1H117.1z M101.5-109.6c0,7.6,4.2,12.1,10.7,12.1c5.6,0,10.1-3.4,10.1-10.9c0-0.9,0-2.2-0.2-3.3h-15.4
				c0.2-3.4,2.7-5.4,5.4-5.4c2,0,3.7,0.8,4.9,2.4l3.4-3.4c-1.8-2.2-4.5-3.6-8.2-3.6C105.7-121.8,101.5-117.2,101.5-109.6"/>
		</g>
		<g id="g4781" transform="matrix(0.73462473,0,0,-0.73462473,150.33792,250.4888)">
			<path id="path4783" inkscape:connector-curvature="0" class="st5" d="M132.6-107.2c-0.2,3.5-2.4,5.1-4.9,5.1
				c-2.9,0-5.1-1.5-5.4-5.1H132.6z M117.1-109.6c0,7.6,4.2,12.1,10.7,12.1c5.6,0,10.1-3.4,10.1-10.9c0-0.9,0-2.2-0.2-3.3h-15.4
				c0.2-3.4,2.7-5.4,5.4-5.4c2,0,3.7,0.8,4.9,2.4l3.4-3.4c-1.8-2.2-4.5-3.6-8.2-3.6C121.2-121.8,117.1-117.2,117.1-109.6"/>
		</g>
		<g id="g4785" transform="matrix(0.73462473,0,0,-0.73462473,153.09056,252.70921)">
			<path id="path4787" inkscape:connector-curvature="0" class="st5" d="M139.5-112.8v13.1H136v4.6h3.4v7l5.3,2.5V-95h5.3v-4.6h-5.3
				v-12.1c0-1.3,0.5-2.2,2-2.2c1.2,0,2.4,0.4,3.6,1l-0.6-4.8c-1.3-0.7-2.9-1-4.9-1C141.1-118.7,139.5-116.5,139.5-112.8"/>
		</g>
		<g id="g4789" transform="matrix(0.73462473,0,0,-0.73462473,163.15941,254.10706)">
			<path id="path4791" inkscape:connector-curvature="0" class="st5" d="M164.6-116.3v16.9c0,1.1,0.1,2.9,0.2,3.8
				c-0.4-1.2-1-2.8-1.4-3.9l-7.7-17.3l-7.7,17.4c-0.5,1.1-1.1,2.6-1.5,3.8c0.1-0.9,0.2-2.7,0.2-3.8v-16.9h-5.4v31.7h5.5l8.2-18.6
				c0.3-0.8,0.6-1.6,0.9-2.4c0.2,0.7,0.5,1.6,0.9,2.4l8.2,18.6h5.3v-31.7H164.6z"/>
		</g>
		<g id="g4793" transform="matrix(0.73462473,0,0,-0.73462473,169.57803,252.46238)">
			<path id="path4795" inkscape:connector-curvature="0" class="st5" d="M180.7-112.2v3c-1.2,0.6-2.9,0.9-4.6,0.9
				c-2.6,0-4.8-0.9-4.8-3.1c0-1.8,1.5-3,4.2-3C177.8-114.4,179.5-113.4,180.7-112.2 M180.7-116.7c-1.1-1.2-3.1-2.4-6.2-2.4
				c-4.8,0-8.4,2.6-8.4,7.7c0,5.3,4.5,7.7,9.1,7.7c2.2,0,4-0.4,5.5-1.2v1.2c0,3-1.5,4.2-4.5,4.2c-2.8,0-4.9-0.8-6.9-2.2l-1.6,4.3
				c2.1,1.4,5.2,2.5,9.1,2.5c4.1,0,9.2-1,9.2-8.8v-14.9h-5.2V-116.7z"/>
		</g>
		<g id="g4797" transform="matrix(0.73462473,0,0,-0.73462473,176.11289,251.11146)">
			<path id="path4799" inkscape:connector-curvature="0" class="st5" d="M197-108.8c0,4.2-1.8,7.1-5,7.1c-2.1,0-3.5-0.9-4.5-2.3
				v-9.6c0.8-1.2,2.4-2.3,4.5-2.3C195.2-115.8,197-113.3,197-108.8 M187.5-118.5v-8.5l-5.3-2.4v32.3h5.3V-99
				c1.1,1.4,2.8,2.3,5.3,2.3c5.8,0,9.5-4.4,9.5-12.1c0-7.6-3.9-12.1-9.6-12.1C190.2-120.9,188.5-119.9,187.5-118.5"/>
		</g>
	</g>
</g>
</svg>
